<?xml version="1.0" encoding="us-ascii" standalone="no"?><svg xmlns="http://www.w3.org/2000/svg" xmlns:xlink="http://www.w3.org/1999/xlink" contentStyleType="text/css" height="117px" preserveAspectRatio="none" style="width:467px;height:117px;background:#FFFFFF;" version="1.1" viewBox="0 0 467 117" width="467px" zoomAndPan="magnify"><defs/><g><!--class IUniverseSolverFactory--><g id="elem_IUniverseSolverFactory"><rect codeLine="1" fill="#F1F1F1" height="96.8906" id="IUniverseSolverFactory" rx="2.5" ry="2.5" style="stroke:#181818;stroke-width:0.5;" width="446" x="7" y="7"/><ellipse cx="143.75" cy="23" fill="#B4A7E5" rx="11" ry="11" style="stroke:#181818;stroke-width:1.0;"/><path d="M144.7031,19.7813 L146.4219,19.7813 C146.8125,19.7813 147,19.75 147.125,19.6719 C147.3906,19.5156 147.5313,19.2344 147.5313,18.9375 C147.5313,18.6719 147.4219,18.4063 147.1875,18.2344 C147.0156,18.125 146.875,18.0938 146.4219,18.0938 L141.2813,18.0938 C140.8438,18.0938 140.7188,18.1094 140.5625,18.2031 C140.3125,18.3594 140.1563,18.6563 140.1563,18.9375 C140.1563,19.2188 140.2969,19.4688 140.5156,19.6406 C140.6719,19.75 140.8594,19.7813 141.2813,19.7813 L143,19.7813 L143,26.2969 L141.2813,26.2969 C140.8438,26.2969 140.7188,26.3125 140.5625,26.4219 C140.3125,26.5781 140.1563,26.8594 140.1563,27.1563 C140.1563,27.4063 140.2969,27.6719 140.5156,27.8281 C140.6719,27.9531 140.875,28 141.2813,28 L146.4219,28 C147.1719,28 147.5313,27.7188 147.5313,27.1563 C147.5313,26.875 147.4219,26.625 147.1875,26.4531 C147.0156,26.3281 146.875,26.2969 146.4219,26.2969 L144.7031,26.2969 L144.7031,19.7813 Z " fill="#000000"/><text fill="#000000" font-family="sans-serif" font-size="14" font-style="italic" lengthAdjust="spacing" textLength="164" x="164.25" y="27.8467">IUniverseSolverFactory</text><line style="stroke:#181818;stroke-width:0.5;" x1="8" x2="452" y1="39" y2="39"/><line style="stroke:#181818;stroke-width:0.5;" x1="8" x2="452" y1="47" y2="47"/><text fill="#000000" font-family="sans-serif" font-size="14" lengthAdjust="spacing" textLength="264" x="13" y="63.9951">IUniverseSatSolver createSatSolver()</text><text fill="#000000" font-family="sans-serif" font-size="14" lengthAdjust="spacing" textLength="434" x="13" y="80.292">IUniversePseudoBooleanSolver createPseudoBooleanSolver()</text><text fill="#000000" font-family="sans-serif" font-size="14" lengthAdjust="spacing" textLength="270" x="13" y="96.5889">IUniverseCspSolver createCspSolver()</text></g><!--SRC=[oymhIIrAIqnELV0CpSiiIoqgJWtEpm7IRed99Vb5bLpOXHMiaDGdba3a59ABKXDB47mDJI9q1nIdbgRaE-NdvwGcvg6OWqK6dua88vsB2r0CWlCrD040]--></g></svg>