<?xml version="1.0" encoding="UTF-8" standalone="no"?><svg xmlns="http://www.w3.org/2000/svg" xmlns:xlink="http://www.w3.org/1999/xlink" contentStyleType="text/css" height="117px" preserveAspectRatio="none" style="width:474px;height:117px;background:#FFFFFF;" version="1.1" viewBox="0 0 474 117" width="474px" zoomAndPan="magnify"><defs/><g><!--MD5=[70e465f7b99b67477a4a40b99ea8a75f]
class IUniverseSolverFactory--><g id="elem_ISolverFactory"><rect codeLine="1" fill="#F1F1F1" height="96.8906" id="IUniverseSolverFactory" rx="2.5" ry="2.5" style="stroke:#181818;stroke-width:0.5;" width="453" x="7" y="7"/><ellipse cx="178.25" cy="23" fill="#B4A7E5" rx="11" ry="11" style="stroke:#181818;stroke-width:1.0;"/><path d="M179.2031,19.7813 L180.9219,19.7813 C181.3125,19.7813 181.5,19.75 181.625,19.6719 C181.8906,19.5156 182.0313,19.2344 182.0313,18.9375 C182.0313,18.6719 181.9219,18.4063 181.6875,18.2344 C181.5156,18.125 181.375,18.0938 180.9219,18.0938 L175.7813,18.0938 C175.3438,18.0938 175.2188,18.1094 175.0625,18.2031 C174.8125,18.3594 174.6563,18.6563 174.6563,18.9375 C174.6563,19.2188 174.7969,19.4688 175.0156,19.6406 C175.1719,19.75 175.3594,19.7813 175.7813,19.7813 L177.5,19.7813 L177.5,26.2969 L175.7813,26.2969 C175.3438,26.2969 175.2188,26.3125 175.0625,26.4219 C174.8125,26.5781 174.6563,26.8594 174.6563,27.1563 C174.6563,27.4063 174.7969,27.6719 175.0156,27.8281 C175.1719,27.9531 175.375,28 175.7813,28 L180.9219,28 C181.6719,28 182.0313,27.7188 182.0313,27.1563 C182.0313,26.875 181.9219,26.625 181.6875,26.4531 C181.5156,26.3281 181.375,26.2969 180.9219,26.2969 L179.2031,26.2969 L179.2031,19.7813 Z " fill="#000000"/><text fill="#000000" font-family="sans-serif" font-size="14" font-style="italic" lengthAdjust="spacing" textLength="102" x="198.75" y="27.8467">IUniverseSolverFactory</text><line style="stroke:#181818;stroke-width:0.5;" x1="8" x2="459" y1="39" y2="39"/><line style="stroke:#181818;stroke-width:0.5;" x1="8" x2="459" y1="47" y2="47"/><text fill="#000000" font-family="sans-serif" font-size="14" lengthAdjust="spacing" textLength="271" x="13" y="63.9951">IUniverseSatSolver *createSatSolver()</text><text fill="#000000" font-family="sans-serif" font-size="14" lengthAdjust="spacing" textLength="441" x="13" y="80.292">IUniversePseudoBooleanSolver *createPseudoBooleanSolver()</text><text fill="#000000" font-family="sans-serif" font-size="14" lengthAdjust="spacing" textLength="277" x="13" y="96.5889">IUniverseCspSolver *createCspSolver()</text></g><!--MD5=[1c4339d73c57ccad0945c475bea4251b]
@startuml
interface IUniverseSolverFactory
IUniverseSolverFactory : IUniverseSatSolver *createSatSolver()
IUniverseSolverFactory : IUniversePseudoBooleanSolver *createPseudoBooleanSolver()
IUniverseSolverFactory :  IUniverseCspSolver *createCspSolver()
@enduml

PlantUML version 1.2022.13beta5(Unknown compile time)
(GPL source distribution)
Java Runtime: Java(TM) SE Runtime Environment
JVM: Java HotSpot(TM) 64-Bit Server VM
Default Encoding: UTF-8
Language: en
Country: US
--></g></svg>