<?xml version="1.0" encoding="us-ascii" standalone="no"?><svg xmlns="http://www.w3.org/2000/svg" xmlns:xlink="http://www.w3.org/1999/xlink" contentStyleType="text/css" height="810px" preserveAspectRatio="none" style="width:682px;height:810px;background:#FFFFFF;" version="1.1" viewBox="0 0 682 810" width="682px" zoomAndPan="magnify"><defs/><g><!--class IUniverseSolver--><g id="elem_IUniverseSolver"><rect codeLine="1" fill="#F1F1F1" height="243.5625" id="IUniverseSolver" rx="2.5" ry="2.5" style="stroke:#181818;stroke-width:0.5;" width="598" x="42" y="7"/><ellipse cx="281.25" cy="23" fill="#B4A7E5" rx="11" ry="11" style="stroke:#181818;stroke-width:1.0;"/><path d="M277.6719,19.2656 L277.6719,17.1094 L285.0625,17.1094 L285.0625,19.2656 L282.5938,19.2656 L282.5938,27.3438 L285.0625,27.3438 L285.0625,29.5 L277.6719,29.5 L277.6719,27.3438 L280.1406,27.3438 L280.1406,19.2656 L277.6719,19.2656 Z " fill="#000000"/><text fill="#000000" font-family="sans-serif" font-size="14" font-style="italic" lengthAdjust="spacing" textLength="111" x="301.75" y="27.8467">IUniverseSolver</text><line style="stroke:#181818;stroke-width:0.5;" x1="43" x2="639" y1="39" y2="39"/><line style="stroke:#181818;stroke-width:0.5;" x1="43" x2="639" y1="47" y2="47"/><text fill="#000000" font-family="sans-serif" font-size="14" lengthAdjust="spacing" textLength="47" x="48" y="63.9951">solve()</text><text fill="#000000" font-family="sans-serif" font-size="14" lengthAdjust="spacing" textLength="311" x="48" y="80.292">UniverseSolverResult solve(String filename)</text><text fill="#000000" font-family="sans-serif" font-size="14" lengthAdjust="spacing" textLength="586" x="48" y="96.5889">UniverseSolverResult solve(List&lt;UniverseAssumption&lt;BigInteger&gt;&gt; assumptions)</text><text fill="#000000" font-family="sans-serif" font-size="14" lengthAdjust="spacing" textLength="106" x="48" y="112.8857">void interrupt()</text><text fill="#000000" font-family="sans-serif" font-size="14" lengthAdjust="spacing" textLength="188" x="48" y="129.1826">void setVerbosity(int level)</text><text fill="#000000" font-family="sans-serif" font-size="14" lengthAdjust="spacing" textLength="217" x="48" y="145.4795">void setTimeout(long seconds)</text><text fill="#000000" font-family="sans-serif" font-size="14" lengthAdjust="spacing" textLength="250" x="48" y="161.7764">void setTimeoutMs(long mseconds)</text><text fill="#000000" font-family="sans-serif" font-size="14" lengthAdjust="spacing" textLength="80" x="48" y="178.0732">void reset()</text><text fill="#000000" font-family="sans-serif" font-size="14" lengthAdjust="spacing" textLength="192" x="48" y="194.3701">List&lt;BigInteger&gt; solution()</text><text fill="#000000" font-family="sans-serif" font-size="14" lengthAdjust="spacing" textLength="108" x="48" y="210.667">int nVariables()</text><text fill="#000000" font-family="sans-serif" font-size="14" lengthAdjust="spacing" textLength="121" x="48" y="226.9639">int nConstraints()</text><text fill="#000000" font-family="sans-serif" font-size="14" lengthAdjust="spacing" textLength="225" x="48" y="243.2607">void setLogFile(String filename)</text></g><!--class IUniverseSatSolver--><g id="elem_IUniverseSatSolver"><rect codeLine="15" fill="#F1F1F1" height="80.5938" id="IUniverseSatSolver" rx="2.5" ry="2.5" style="stroke:#181818;stroke-width:0.5;" width="327" x="177.5" y="311"/><ellipse cx="269.75" cy="327" fill="#B4A7E5" rx="11" ry="11" style="stroke:#181818;stroke-width:1.0;"/><path d="M266.1719,323.2656 L266.1719,321.1094 L273.5625,321.1094 L273.5625,323.2656 L271.0938,323.2656 L271.0938,331.3438 L273.5625,331.3438 L273.5625,333.5 L266.1719,333.5 L266.1719,331.3438 L268.6406,331.3438 L268.6406,323.2656 L266.1719,323.2656 Z " fill="#000000"/><text fill="#000000" font-family="sans-serif" font-size="14" font-style="italic" lengthAdjust="spacing" textLength="134" x="290.25" y="331.8467">IUniverseSatSolver</text><line style="stroke:#181818;stroke-width:0.5;" x1="178.5" x2="503.5" y1="343" y2="343"/><line style="stroke:#181818;stroke-width:0.5;" x1="178.5" x2="503.5" y1="351" y2="351"/><text fill="#000000" font-family="sans-serif" font-size="14" lengthAdjust="spacing" textLength="315" x="183.5" y="367.9951">void addAllClauses(List&lt;List&lt;int&gt;&gt; clauses)</text><text fill="#000000" font-family="sans-serif" font-size="14" lengthAdjust="spacing" textLength="237" x="183.5" y="384.292">void addClause(List&lt;int&gt; literals)</text></g><!--class IUniversePseudoBooleanSolver--><g id="elem_IUniversePseudoBooleanSolver"><rect codeLine="19" fill="#F1F1F1" height="162.0781" id="IUniversePseudoBooleanSolver" rx="2.5" ry="2.5" style="stroke:#181818;stroke-width:0.5;" width="668" x="7" y="452"/><ellipse cx="226.25" cy="468" fill="#B4A7E5" rx="11" ry="11" style="stroke:#181818;stroke-width:1.0;"/><path d="M222.6719,464.2656 L222.6719,462.1094 L230.0625,462.1094 L230.0625,464.2656 L227.5938,464.2656 L227.5938,472.3438 L230.0625,472.3438 L230.0625,474.5 L222.6719,474.5 L222.6719,472.3438 L225.1406,472.3438 L225.1406,464.2656 L222.6719,464.2656 Z " fill="#000000"/><text fill="#000000" font-family="sans-serif" font-size="14" font-style="italic" lengthAdjust="spacing" textLength="221" x="246.75" y="472.8467">IUniversePseudoBooleanSolver</text><line style="stroke:#181818;stroke-width:0.5;" x1="8" x2="674" y1="484" y2="484"/><line style="stroke:#181818;stroke-width:0.5;" x1="8" x2="674" y1="492" y2="492"/><text fill="#000000" font-family="sans-serif" font-size="14" lengthAdjust="spacing" textLength="656" x="13" y="508.9951">void addPseudoBoolean(List&lt;int&gt; lits, List&lt;BigInteger&gt; coeffs,bool moreThan, BigInteger d)</text><text fill="#000000" font-family="sans-serif" font-size="14" lengthAdjust="spacing" textLength="439" x="13" y="525.292">void addAtMost(List&lt;int&gt; literals, List&lt;int&gt; coeffs, int degree)</text><text fill="#000000" font-family="sans-serif" font-size="14" lengthAdjust="spacing" textLength="551" x="13" y="541.5889">void addAtMost(List&lt;int&gt; literals, List&lt;BigInteger&gt; coeffs, BigInteger degree)</text><text fill="#000000" font-family="sans-serif" font-size="14" lengthAdjust="spacing" textLength="444" x="13" y="557.8857">void addAtLeast(List&lt;int&gt; literals, List&lt;int&gt; coeffs, int degree)</text><text fill="#000000" font-family="sans-serif" font-size="14" lengthAdjust="spacing" textLength="552" x="13" y="574.1826">void addAtLeast(List&lt;int&gt; literals, List&lt;BigInteger&gt; coeffs,BigInteger degree)</text><text fill="#000000" font-family="sans-serif" font-size="14" lengthAdjust="spacing" textLength="438" x="13" y="590.4795">void addExactly(List&lt;int&gt; literals, List&lt;int&gt; coeffs, int weight)</text><text fill="#000000" font-family="sans-serif" font-size="14" lengthAdjust="spacing" textLength="550" x="13" y="606.7764">void addExactly(List&lt;int&gt; literals, List&lt;BigInteger&gt; coeffs, BigInteger weight)</text></g><!--class IUniverseCspSolver--><g id="elem_IUniverseCspSolver"><rect codeLine="29" fill="#F1F1F1" height="129.4844" id="IUniverseCspSolver" rx="2.5" ry="2.5" style="stroke:#181818;stroke-width:0.5;" width="434" x="124" y="674"/><ellipse cx="268.25" cy="690" fill="#B4A7E5" rx="11" ry="11" style="stroke:#181818;stroke-width:1.0;"/><path d="M264.6719,686.2656 L264.6719,684.1094 L272.0625,684.1094 L272.0625,686.2656 L269.5938,686.2656 L269.5938,694.3438 L272.0625,694.3438 L272.0625,696.5 L264.6719,696.5 L264.6719,694.3438 L267.1406,694.3438 L267.1406,686.2656 L264.6719,686.2656 Z " fill="#000000"/><text fill="#000000" font-family="sans-serif" font-size="14" font-style="italic" lengthAdjust="spacing" textLength="137" x="288.75" y="694.8467">IUniverseCspSolver</text><line style="stroke:#181818;stroke-width:0.5;" x1="125" x2="557" y1="706" y2="706"/><line style="stroke:#181818;stroke-width:0.5;" x1="125" x2="557" y1="714" y2="714"/><text fill="#000000" font-family="sans-serif" font-size="14" lengthAdjust="spacing" textLength="310" x="130" y="730.9951">void newVariable(String id, int min, int max)</text><text fill="#000000" font-family="sans-serif" font-size="14" lengthAdjust="spacing" textLength="422" x="130" y="747.292">void newVariable(String id, BigInteger min, BigInteger max)</text><text fill="#000000" font-family="sans-serif" font-size="14" lengthAdjust="spacing" textLength="316" x="130" y="763.5889">void newVariable(String id, List&lt;int&gt; values)</text><text fill="#000000" font-family="sans-serif" font-size="14" lengthAdjust="spacing" textLength="372" x="130" y="779.8857">void newVariable(String id, List&lt;BigInteger&gt; values)</text><text fill="#000000" font-family="sans-serif" font-size="14" lengthAdjust="spacing" textLength="78" x="130" y="796.1826">void add*()</text></g><!--reverse link IUniverseSolver to IUniverseSatSolver--><g id="link_IUniverseSolver_IUniverseSatSolver"><path codeLine="37" d="M341,271.7 C341,285.91 341,299.36 341,310.99 " fill="none" id="IUniverseSolver-backto-IUniverseSatSolver" style="stroke:#181818;stroke-width:1.0;"/><polygon fill="none" points="334,271.22,341,251.22,348,271.22,334,271.22" style="stroke:#181818;stroke-width:1.0;"/></g><!--reverse link IUniverseSatSolver to IUniversePseudoBooleanSolver--><g id="link_IUniverseSatSolver_IUniversePseudoBooleanSolver"><path codeLine="38" d="M341,412.51 C341,425.11 341,438.6 341,451.81 " fill="none" id="IUniverseSatSolver-backto-IUniversePseudoBooleanSolver" style="stroke:#181818;stroke-width:1.0;"/><polygon fill="none" points="334,412.34,341,392.34,348,412.34,334,412.34" style="stroke:#181818;stroke-width:1.0;"/></g><!--reverse link IUniversePseudoBooleanSolver to IUniverseCspSolver--><g id="link_IUniversePseudoBooleanSolver_IUniverseCspSolver"><path codeLine="39" d="M341,634.36 C341,647.77 341,661.23 341,673.78 " fill="none" id="IUniversePseudoBooleanSolver-backto-IUniverseCspSolver" style="stroke:#181818;stroke-width:1.0;"/><polygon fill="none" points="334,634.14,341,614.14,348,634.14,334,634.14" style="stroke:#181818;stroke-width:1.0;"/></g><!--SRC=[jLJRRi8m37tdA_BOJkm79eG4Q9EGG9e6upsqfbXA4nIdNAHz_DAMbhPaXIBMXpPrV8vzxCGe3UWD3u3bp_HRuXuqmK89- -qr_jaRetJX-OuTLhTy0IN2dFqNHgECs0O5I1v3L_WCoGoA_H5H4kyCAZaOOpIr2YBGmo7ZfPsS_7k58SDKi4vsnllRXy2iGAyLeJbv5i04x46q-Yyn1fKOJoYhaY1GCgHx07FA8V5DZ0QBSYUTLQTIYhHeILe7jtkgIAwuHhuMG2q-4rj9exbTKtkrPYhwi9szxd8Fo_DrWNDpTRWAaoNDE7aOZeIO29wGpJ3JbxqidMrqaDlzTe8SxPKu9j3cmWMvq_eaI48rLae0byq47PkLIBNTUa3gNtSdKB3PK7zj_LciD2otNFRPnOE5_hsHHsQko3WqdiDcjdEyhASXH1hWQVmEMJKXNQFDWF-ld1i177eUb_D-v84Hfmvo3e3HrZmlm8ts5E6Szs52k-OjA4tbtPTmA0P9SVanpBN4ACyBVlJT76qKbJGpfkh_GuIN8ksvI6hJusvTLqLjfIhQzEAb9MwEpy7Fw-kTGx7ksdbGrU6NllPwlm00]--></g></svg>