<?xml version="1.0" encoding="UTF-8" standalone="no"?><svg xmlns="http://www.w3.org/2000/svg" xmlns:xlink="http://www.w3.org/1999/xlink" contentStyleType="text/css" height="810px" preserveAspectRatio="none" style="width:798px;height:810px;background:#FFFFFF;" version="1.1" viewBox="0 0 798 810" width="798px" zoomAndPan="magnify"><defs/><g><!--MD5=[bd471df76459faed48a52972ff833f9f]
class IUniverseSolver--><g id="elem_IUniverseSolver"><rect codeLine="1" fill="#F1F1F1" height="243.5625" id="IUniverseSolver" rx="2.5" ry="2.5" style="stroke:#181818;stroke-width:0.5;" width="654" x="72" y="7"/><ellipse cx="339.25" cy="23" fill="#B4A7E5" rx="11" ry="11" style="stroke:#181818;stroke-width:1.0;"/><path d="M340.2031,19.7813 L341.9219,19.7813 C342.3125,19.7813 342.5,19.75 342.625,19.6719 C342.8906,19.5156 343.0313,19.2344 343.0313,18.9375 C343.0313,18.6719 342.9219,18.4063 342.6875,18.2344 C342.5156,18.125 342.375,18.0938 341.9219,18.0938 L336.7813,18.0938 C336.3438,18.0938 336.2188,18.1094 336.0625,18.2031 C335.8125,18.3594 335.6563,18.6563 335.6563,18.9375 C335.6563,19.2188 335.7969,19.4688 336.0156,19.6406 C336.1719,19.75 336.3594,19.7813 336.7813,19.7813 L338.5,19.7813 L338.5,26.2969 L336.7813,26.2969 C336.3438,26.2969 336.2188,26.3125 336.0625,26.4219 C335.8125,26.5781 335.6563,26.8594 335.6563,27.1563 C335.6563,27.4063 335.7969,27.6719 336.0156,27.8281 C336.1719,27.9531 336.375,28 336.7813,28 L341.9219,28 C342.6719,28 343.0313,27.7188 343.0313,27.1563 C343.0313,26.875 342.9219,26.625 342.6875,26.4531 C342.5156,26.3281 342.375,26.2969 341.9219,26.2969 L340.2031,26.2969 L340.2031,19.7813 Z " fill="#000000"/><text fill="#000000" font-family="sans-serif" font-size="14" font-style="italic" lengthAdjust="spacing" textLength="111" x="359.75" y="27.8467">IUniverseSolver</text><line style="stroke:#181818;stroke-width:0.5;" x1="73" x2="725" y1="39" y2="39"/><line style="stroke:#181818;stroke-width:0.5;" x1="73" x2="725" y1="47" y2="47"/><text fill="#000000" font-family="sans-serif" font-size="14" lengthAdjust="spacing" textLength="47" x="78" y="63.9951">solve()</text><text fill="#000000" font-family="sans-serif" font-size="14" lengthAdjust="spacing" textLength="344" x="78" y="80.292">UniverseSolverResult solve(std::string filename)</text><text fill="#000000" font-family="sans-serif" font-size="14" lengthAdjust="spacing" textLength="642" x="78" y="96.5889">UniverseSolverResult solve(std::vector&lt;UniverseAssumption&lt;BigInteger&gt;&gt; assumptions)</text><text fill="#000000" font-family="sans-serif" font-size="14" lengthAdjust="spacing" textLength="110" x="78" y="112.8857">void interrupt()</text><text fill="#000000" font-family="sans-serif" font-size="14" lengthAdjust="spacing" textLength="195" x="78" y="129.1826">void setVerbosity(int level)</text><text fill="#000000" font-family="sans-serif" font-size="14" lengthAdjust="spacing" textLength="220" x="78" y="145.4795">void setTimeout(long seconds)</text><text fill="#000000" font-family="sans-serif" font-size="14" lengthAdjust="spacing" textLength="253" x="78" y="161.7764">void setTimeoutMs(long mseconds)</text><text fill="#000000" font-family="sans-serif" font-size="14" lengthAdjust="spacing" textLength="82" x="78" y="178.0732">void reset()</text><text fill="#000000" font-family="sans-serif" font-size="14" lengthAdjust="spacing" textLength="249" x="78" y="194.3701">std::vector&lt;BigInteger&gt; solution()</text><text fill="#000000" font-family="sans-serif" font-size="14" lengthAdjust="spacing" textLength="109" x="78" y="210.667">int nVariables()</text><text fill="#000000" font-family="sans-serif" font-size="14" lengthAdjust="spacing" textLength="126" x="78" y="226.9639">int nConstraints()</text><text fill="#000000" font-family="sans-serif" font-size="14" lengthAdjust="spacing" textLength="315" x="78" y="243.2607">void setLogFile(const std::string&amp; filename)</text></g><!--MD5=[0bd712ea53f60b17817ab67f72daff8f]
class IUniverseSatSolver--><g id="elem_IUniverseSatSolver"><rect codeLine="15" fill="#F1F1F1" height="80.5938" id="IUniverseSatSolver" rx="2.5" ry="2.5" style="stroke:#181818;stroke-width:0.5;" width="487" x="155.5" y="311"/><ellipse cx="327.75" cy="327" fill="#B4A7E5" rx="11" ry="11" style="stroke:#181818;stroke-width:1.0;"/><path d="M328.7031,323.7813 L330.4219,323.7813 C330.8125,323.7813 331,323.75 331.125,323.6719 C331.3906,323.5156 331.5313,323.2344 331.5313,322.9375 C331.5313,322.6719 331.4219,322.4063 331.1875,322.2344 C331.0156,322.125 330.875,322.0938 330.4219,322.0938 L325.2813,322.0938 C324.8438,322.0938 324.7188,322.1094 324.5625,322.2031 C324.3125,322.3594 324.1563,322.6563 324.1563,322.9375 C324.1563,323.2188 324.2969,323.4688 324.5156,323.6406 C324.6719,323.75 324.8594,323.7813 325.2813,323.7813 L327,323.7813 L327,330.2969 L325.2813,330.2969 C324.8438,330.2969 324.7188,330.3125 324.5625,330.4219 C324.3125,330.5781 324.1563,330.8594 324.1563,331.1563 C324.1563,331.4063 324.2969,331.6719 324.5156,331.8281 C324.6719,331.9531 324.875,332 325.2813,332 L330.4219,332 C331.1719,332 331.5313,331.7188 331.5313,331.1563 C331.5313,330.875 331.4219,330.625 331.1875,330.4531 C331.0156,330.3281 330.875,330.2969 330.4219,330.2969 L328.7031,330.2969 L328.7031,323.7813 Z " fill="#000000"/><text fill="#000000" font-family="sans-serif" font-size="14" font-style="italic" lengthAdjust="spacing" textLength="134" x="348.25" y="331.8467">IUniverseSatSolver</text><line style="stroke:#181818;stroke-width:0.5;" x1="156.5" x2="641.5" y1="343" y2="343"/><line style="stroke:#181818;stroke-width:0.5;" x1="156.5" x2="641.5" y1="351" y2="351"/><text fill="#000000" font-family="sans-serif" font-size="14" lengthAdjust="spacing" textLength="475" x="161.5" y="367.9951">void addAllClauses(const std::vector&lt;std::vector&lt;int&gt;&gt;&amp; clauses)</text><text fill="#000000" font-family="sans-serif" font-size="14" lengthAdjust="spacing" textLength="346" x="161.5" y="384.292">void addClause(const std::vector&lt;int&gt;&amp; literals)</text></g><!--MD5=[fc6a0d572e585d1935b5d075bcbce36f]
class IUniversePseudoBooleanSolver--><g id="elem_IUniversePseudoBooleanSolver"><rect codeLine="19" fill="#F1F1F1" height="162.0781" id="IUniversePseudoBooleanSolver" rx="2.5" ry="2.5" style="stroke:#181818;stroke-width:0.5;" width="784" x="7" y="452"/><ellipse cx="284.25" cy="468" fill="#B4A7E5" rx="11" ry="11" style="stroke:#181818;stroke-width:1.0;"/><path d="M285.2031,464.7813 L286.9219,464.7813 C287.3125,464.7813 287.5,464.75 287.625,464.6719 C287.8906,464.5156 288.0313,464.2344 288.0313,463.9375 C288.0313,463.6719 287.9219,463.4063 287.6875,463.2344 C287.5156,463.125 287.375,463.0938 286.9219,463.0938 L281.7813,463.0938 C281.3438,463.0938 281.2188,463.1094 281.0625,463.2031 C280.8125,463.3594 280.6563,463.6563 280.6563,463.9375 C280.6563,464.2188 280.7969,464.4688 281.0156,464.6406 C281.1719,464.75 281.3594,464.7813 281.7813,464.7813 L283.5,464.7813 L283.5,471.2969 L281.7813,471.2969 C281.3438,471.2969 281.2188,471.3125 281.0625,471.4219 C280.8125,471.5781 280.6563,471.8594 280.6563,472.1563 C280.6563,472.4063 280.7969,472.6719 281.0156,472.8281 C281.1719,472.9531 281.375,473 281.7813,473 L286.9219,473 C287.6719,473 288.0313,472.7188 288.0313,472.1563 C288.0313,471.875 287.9219,471.625 287.6875,471.4531 C287.5156,471.3281 287.375,471.2969 286.9219,471.2969 L285.2031,471.2969 L285.2031,464.7813 Z " fill="#000000"/><text fill="#000000" font-family="sans-serif" font-size="14" font-style="italic" lengthAdjust="spacing" textLength="221" x="304.75" y="472.8467">IUniversePseudoBooleanSolver</text><line style="stroke:#181818;stroke-width:0.5;" x1="8" x2="790" y1="484" y2="484"/><line style="stroke:#181818;stroke-width:0.5;" x1="8" x2="790" y1="492" y2="492"/><text fill="#000000" font-family="sans-serif" font-size="14" lengthAdjust="spacing" textLength="772" x="13" y="508.9951">void addPseudoBoolean(std::vector&lt;int&gt; lits, std::vector&lt;BigInteger&gt; coeffs,bool moreThan, BigInteger d)</text><text fill="#000000" font-family="sans-serif" font-size="14" lengthAdjust="spacing" textLength="559" x="13" y="525.292">void addAtMost(std::vector&lt;int&gt; literals, std::vector&lt;int&gt; coeffs, int degree)</text><text fill="#000000" font-family="sans-serif" font-size="14" lengthAdjust="spacing" textLength="671" x="13" y="541.5889">void addAtMost(std::vector&lt;int&gt; literals, std::vector&lt;BigInteger&gt; coeffs, BigInteger degree)</text><text fill="#000000" font-family="sans-serif" font-size="14" lengthAdjust="spacing" textLength="563" x="13" y="557.8857">void addAtLeast(std::vector&lt;int&gt; literals, std::vector&lt;int&gt; coeffs, int degree)</text><text fill="#000000" font-family="sans-serif" font-size="14" lengthAdjust="spacing" textLength="671" x="13" y="574.1826">void addAtLeast(std::vector&lt;int&gt; literals, std::vector&lt;BigInteger&gt; coeffs,BigInteger degree)</text><text fill="#000000" font-family="sans-serif" font-size="14" lengthAdjust="spacing" textLength="557" x="13" y="590.4795">void addExactly(std::vector&lt;int&gt; literals, std::vector&lt;int&gt; coeffs, int weight)</text><text fill="#000000" font-family="sans-serif" font-size="14" lengthAdjust="spacing" textLength="669" x="13" y="606.7764">void addExactly(std::vector&lt;int&gt; literals, std::vector&lt;BigInteger&gt; coeffs, BigInteger weight)</text></g><!--MD5=[59fc095dc21f827fdb1b19e336e73919]
class IUniverseCspSolver--><g id="elem_IUniverseCspSolver"><rect codeLine="29" fill="#F1F1F1" height="129.4844" id="IUniverseCspSolver" rx="2.5" ry="2.5" style="stroke:#181818;stroke-width:0.5;" width="470" x="164" y="674"/><ellipse cx="326.25" cy="690" fill="#B4A7E5" rx="11" ry="11" style="stroke:#181818;stroke-width:1.0;"/><path d="M327.2031,686.7813 L328.9219,686.7813 C329.3125,686.7813 329.5,686.75 329.625,686.6719 C329.8906,686.5156 330.0313,686.2344 330.0313,685.9375 C330.0313,685.6719 329.9219,685.4063 329.6875,685.2344 C329.5156,685.125 329.375,685.0938 328.9219,685.0938 L323.7813,685.0938 C323.3438,685.0938 323.2188,685.1094 323.0625,685.2031 C322.8125,685.3594 322.6563,685.6563 322.6563,685.9375 C322.6563,686.2188 322.7969,686.4688 323.0156,686.6406 C323.1719,686.75 323.3594,686.7813 323.7813,686.7813 L325.5,686.7813 L325.5,693.2969 L323.7813,693.2969 C323.3438,693.2969 323.2188,693.3125 323.0625,693.4219 C322.8125,693.5781 322.6563,693.8594 322.6563,694.1563 C322.6563,694.4063 322.7969,694.6719 323.0156,694.8281 C323.1719,694.9531 323.375,695 323.7813,695 L328.9219,695 C329.6719,695 330.0313,694.7188 330.0313,694.1563 C330.0313,693.875 329.9219,693.625 329.6875,693.4531 C329.5156,693.3281 329.375,693.2969 328.9219,693.2969 L327.2031,693.2969 L327.2031,686.7813 Z " fill="#000000"/><text fill="#000000" font-family="sans-serif" font-size="14" font-style="italic" lengthAdjust="spacing" textLength="137" x="346.75" y="694.8467">IUniverseCspSolver</text><line style="stroke:#181818;stroke-width:0.5;" x1="165" x2="633" y1="706" y2="706"/><line style="stroke:#181818;stroke-width:0.5;" x1="165" x2="633" y1="714" y2="714"/><text fill="#000000" font-family="sans-serif" font-size="14" lengthAdjust="spacing" textLength="345" x="170" y="730.9951">void newVariable(std::string id, int min, int max)</text><text fill="#000000" font-family="sans-serif" font-size="14" lengthAdjust="spacing" textLength="457" x="170" y="747.292">void newVariable(std::string id, BigInteger min, BigInteger max)</text><text fill="#000000" font-family="sans-serif" font-size="14" lengthAdjust="spacing" textLength="402" x="170" y="763.5889">void newVariable(std::string id, std::vector&lt;int&gt; values)</text><text fill="#000000" font-family="sans-serif" font-size="14" lengthAdjust="spacing" textLength="458" x="170" y="779.8857">void newVariable(std::string id, std::vector&lt;BigInteger&gt; values)</text><text fill="#000000" font-family="sans-serif" font-size="14" lengthAdjust="spacing" textLength="77" x="170" y="796.1826">void add*()</text></g><!--MD5=[ab9774f3c417258ac576414f0dc84c63]
reverse link IUniverseSolver to IUniverseSatSolver--><g id="link_IUniverseSolver_IUniverseSatSolver"><path codeLine="37" d="M399,271.702 C399,285.912 399,299.361 399,310.992 " fill="none" id="IUniverseSolver-backto-IUniverseSatSolver" style="stroke:#181818;stroke-width:1.0;"/><polygon fill="none" points="392,271.216,399,251.216,406,271.216,392,271.216" style="stroke:#181818;stroke-width:1.0;"/></g><!--MD5=[b8347390c3d462f5847a76263544e740]
reverse link IUniverseSatSolver to IUniversePseudoBooleanSolver--><g id="link_IUniverseSatSolver_IUniversePseudoBooleanSolver"><path codeLine="38" d="M399,412.51 C399,425.114 399,438.6 399,451.807 " fill="none" id="IUniverseSatSolver-backto-IUniversePseudoBooleanSolver" style="stroke:#181818;stroke-width:1.0;"/><polygon fill="none" points="392,412.337,399,392.337,406,412.337,392,412.337" style="stroke:#181818;stroke-width:1.0;"/></g><!--MD5=[fb584c4fc636fae7c3da8d058c55b9c3]
reverse link IUniversePseudoBooleanSolver to IUniverseCspSolver--><g id="link_IUniversePseudoBooleanSolver_IUniverseCspSolver"><path codeLine="39" d="M399,634.356 C399,647.775 399,661.226 399,673.775 " fill="none" id="IUniversePseudoBooleanSolver-backto-IUniverseCspSolver" style="stroke:#181818;stroke-width:1.0;"/><polygon fill="none" points="392,634.137,399,614.136,406,634.136,392,634.137" style="stroke:#181818;stroke-width:1.0;"/></g><!--MD5=[0cd54eb2091aa711f3acfcdd9166ae96]
@startuml
interface       IUniverseSolver
IUniverseSolver : solve()
IUniverseSolver :  UniverseSolverResult solve(std::string filename)
IUniverseSolver :  UniverseSolverResult solve(std::vector<UniverseAssumption<BigInteger>> assumptions)
IUniverseSolver :  void interrupt()
IUniverseSolver :  void setVerbosity(int level)
IUniverseSolver :  void setTimeout(long seconds)
IUniverseSolver :  void setTimeoutMs(long mseconds)
IUniverseSolver :  void reset()
IUniverseSolver :  std::vector<BigInteger> solution()
IUniverseSolver :  int nVariables()
IUniverseSolver :  int nConstraints()
IUniverseSolver :  void setLogFile(const std::string& filename)

interface IUniverseSatSolver
IUniverseSatSolver : void addAllClauses(const std::vector<std::vector<int>>& clauses)
IUniverseSatSolver : void addClause(const std::vector<int>& literals)

interface IUniversePseudoBooleanSolver
IUniversePseudoBooleanSolver : void addPseudoBoolean(std::vector<int> lits, std::vector<BigInteger> coeffs,bool moreThan, BigInteger d)
IUniversePseudoBooleanSolver : void addAtMost(std::vector<int> literals, std::vector<int> coeffs, int degree)
IUniversePseudoBooleanSolver : void addAtMost(std::vector<int> literals, std::vector<BigInteger> coeffs, BigInteger degree)
IUniversePseudoBooleanSolver : void addAtLeast(std::vector<int> literals, std::vector<int> coeffs, int degree)
IUniversePseudoBooleanSolver : void addAtLeast(std::vector<int> literals, std::vector<BigInteger> coeffs,BigInteger degree)
IUniversePseudoBooleanSolver : void addExactly(std::vector<int> literals, std::vector<int> coeffs, int weight)
IUniversePseudoBooleanSolver : void addExactly(std::vector<int> literals, std::vector<BigInteger> coeffs, BigInteger weight)


interface IUniverseCspSolver
IUniverseCspSolver :  void newVariable(std::string id, int min, int max)
IUniverseCspSolver : void newVariable(std::string id, BigInteger min, BigInteger max)
IUniverseCspSolver : void newVariable(std::string id, std::vector<int> values)
IUniverseCspSolver :  void newVariable(std::string id, std::vector<BigInteger> values)
IUniverseCspSolver : void add*()


IUniverseSolver <|- - IUniverseSatSolver
IUniverseSatSolver <|- - IUniversePseudoBooleanSolver
IUniversePseudoBooleanSolver <|- - IUniverseCspSolver
@enduml

PlantUML version 1.2022.13beta5(Unknown compile time)
(GPL source distribution)
Java Runtime: Java(TM) SE Runtime Environment
JVM: Java HotSpot(TM) 64-Bit Server VM
Default Encoding: UTF-8
Language: en
Country: US
--></g></svg>