<?xml version="1.0" encoding="us-ascii" standalone="no"?><svg xmlns="http://www.w3.org/2000/svg" xmlns:xlink="http://www.w3.org/1999/xlink" contentStyleType="text/css" height="810px" preserveAspectRatio="none" style="width:690px;height:810px;background:#FFFFFF;" version="1.1" viewBox="0 0 690 810" width="690px" zoomAndPan="magnify"><defs/><g><!--class IUniverseSolver--><g id="elem_IUniverseSolver"><rect codeLine="1" fill="#F1F1F1" height="243.5625" id="IUniverseSolver" rx="2.5" ry="2.5" style="stroke:#181818;stroke-width:0.5;" width="600" x="45" y="7"/><ellipse cx="285.25" cy="23" fill="#B4A7E5" rx="11" ry="11" style="stroke:#181818;stroke-width:1.0;"/><path d="M286.2031,19.7813 L287.9219,19.7813 C288.3125,19.7813 288.5,19.75 288.625,19.6719 C288.8906,19.5156 289.0313,19.2344 289.0313,18.9375 C289.0313,18.6719 288.9219,18.4063 288.6875,18.2344 C288.5156,18.125 288.375,18.0938 287.9219,18.0938 L282.7813,18.0938 C282.3438,18.0938 282.2188,18.1094 282.0625,18.2031 C281.8125,18.3594 281.6563,18.6563 281.6563,18.9375 C281.6563,19.2188 281.7969,19.4688 282.0156,19.6406 C282.1719,19.75 282.3594,19.7813 282.7813,19.7813 L284.5,19.7813 L284.5,26.2969 L282.7813,26.2969 C282.3438,26.2969 282.2188,26.3125 282.0625,26.4219 C281.8125,26.5781 281.6563,26.8594 281.6563,27.1563 C281.6563,27.4063 281.7969,27.6719 282.0156,27.8281 C282.1719,27.9531 282.375,28 282.7813,28 L287.9219,28 C288.6719,28 289.0313,27.7188 289.0313,27.1563 C289.0313,26.875 288.9219,26.625 288.6875,26.4531 C288.5156,26.3281 288.375,26.2969 287.9219,26.2969 L286.2031,26.2969 L286.2031,19.7813 Z " fill="#000000"/><text fill="#000000" font-family="sans-serif" font-size="14" font-style="italic" lengthAdjust="spacing" textLength="111" x="305.75" y="27.8467">IUniverseSolver</text><line style="stroke:#181818;stroke-width:0.5;" x1="46" x2="644" y1="39" y2="39"/><line style="stroke:#181818;stroke-width:0.5;" x1="46" x2="644" y1="47" y2="47"/><text fill="#000000" font-family="sans-serif" font-size="14" lengthAdjust="spacing" textLength="47" x="51" y="63.9951">solve()</text><text fill="#000000" font-family="sans-serif" font-size="14" lengthAdjust="spacing" textLength="313" x="51" y="80.292">UniverseSolverResult solve(String filename)</text><text fill="#000000" font-family="sans-serif" font-size="14" lengthAdjust="spacing" textLength="588" x="51" y="96.5889">UniverseSolverResult solve(List&lt;UniverseAssumption&lt;BigInteger&gt;&gt; assumptions)</text><text fill="#000000" font-family="sans-serif" font-size="14" lengthAdjust="spacing" textLength="110" x="51" y="112.8857">void interrupt()</text><text fill="#000000" font-family="sans-serif" font-size="14" lengthAdjust="spacing" textLength="195" x="51" y="129.1826">void setVerbosity(int level)</text><text fill="#000000" font-family="sans-serif" font-size="14" lengthAdjust="spacing" textLength="220" x="51" y="145.4795">void setTimeout(long seconds)</text><text fill="#000000" font-family="sans-serif" font-size="14" lengthAdjust="spacing" textLength="253" x="51" y="161.7764">void setTimeoutMs(long mseconds)</text><text fill="#000000" font-family="sans-serif" font-size="14" lengthAdjust="spacing" textLength="82" x="51" y="178.0732">void reset()</text><text fill="#000000" font-family="sans-serif" font-size="14" lengthAdjust="spacing" textLength="195" x="51" y="194.3701">List&lt;BigInteger&gt; solution()</text><text fill="#000000" font-family="sans-serif" font-size="14" lengthAdjust="spacing" textLength="109" x="51" y="210.667">int nVariables()</text><text fill="#000000" font-family="sans-serif" font-size="14" lengthAdjust="spacing" textLength="126" x="51" y="226.9639">int nConstraints()</text><text fill="#000000" font-family="sans-serif" font-size="14" lengthAdjust="spacing" textLength="229" x="51" y="243.2607">void setLogFile(String filename)</text></g><!--class IUniverseSatSolver--><g id="elem_IUniverseSatSolver"><rect codeLine="15" fill="#F1F1F1" height="80.5938" id="IUniverseSatSolver" rx="2.5" ry="2.5" style="stroke:#181818;stroke-width:0.5;" width="324" x="183" y="311"/><ellipse cx="273.75" cy="327" fill="#B4A7E5" rx="11" ry="11" style="stroke:#181818;stroke-width:1.0;"/><path d="M274.7031,323.7813 L276.4219,323.7813 C276.8125,323.7813 277,323.75 277.125,323.6719 C277.3906,323.5156 277.5313,323.2344 277.5313,322.9375 C277.5313,322.6719 277.4219,322.4063 277.1875,322.2344 C277.0156,322.125 276.875,322.0938 276.4219,322.0938 L271.2813,322.0938 C270.8438,322.0938 270.7188,322.1094 270.5625,322.2031 C270.3125,322.3594 270.1563,322.6563 270.1563,322.9375 C270.1563,323.2188 270.2969,323.4688 270.5156,323.6406 C270.6719,323.75 270.8594,323.7813 271.2813,323.7813 L273,323.7813 L273,330.2969 L271.2813,330.2969 C270.8438,330.2969 270.7188,330.3125 270.5625,330.4219 C270.3125,330.5781 270.1563,330.8594 270.1563,331.1563 C270.1563,331.4063 270.2969,331.6719 270.5156,331.8281 C270.6719,331.9531 270.875,332 271.2813,332 L276.4219,332 C277.1719,332 277.5313,331.7188 277.5313,331.1563 C277.5313,330.875 277.4219,330.625 277.1875,330.4531 C277.0156,330.3281 276.875,330.2969 276.4219,330.2969 L274.7031,330.2969 L274.7031,323.7813 Z " fill="#000000"/><text fill="#000000" font-family="sans-serif" font-size="14" font-style="italic" lengthAdjust="spacing" textLength="134" x="294.25" y="331.8467">IUniverseSatSolver</text><line style="stroke:#181818;stroke-width:0.5;" x1="184" x2="506" y1="343" y2="343"/><line style="stroke:#181818;stroke-width:0.5;" x1="184" x2="506" y1="351" y2="351"/><text fill="#000000" font-family="sans-serif" font-size="14" lengthAdjust="spacing" textLength="312" x="189" y="367.9951">void addAllClauses(List&lt;List&lt;int&gt;&gt; clauses)</text><text fill="#000000" font-family="sans-serif" font-size="14" lengthAdjust="spacing" textLength="237" x="189" y="384.292">void addClause(List&lt;int&gt; literals)</text></g><!--class IUniversePseudoBooleanSolver--><g id="elem_IUniversePseudoBooleanSolver"><rect codeLine="19" fill="#F1F1F1" height="162.0781" id="IUniversePseudoBooleanSolver" rx="2.5" ry="2.5" style="stroke:#181818;stroke-width:0.5;" width="676" x="7" y="452"/><ellipse cx="230.25" cy="468" fill="#B4A7E5" rx="11" ry="11" style="stroke:#181818;stroke-width:1.0;"/><path d="M231.2031,464.7813 L232.9219,464.7813 C233.3125,464.7813 233.5,464.75 233.625,464.6719 C233.8906,464.5156 234.0313,464.2344 234.0313,463.9375 C234.0313,463.6719 233.9219,463.4063 233.6875,463.2344 C233.5156,463.125 233.375,463.0938 232.9219,463.0938 L227.7813,463.0938 C227.3438,463.0938 227.2188,463.1094 227.0625,463.2031 C226.8125,463.3594 226.6563,463.6563 226.6563,463.9375 C226.6563,464.2188 226.7969,464.4688 227.0156,464.6406 C227.1719,464.75 227.3594,464.7813 227.7813,464.7813 L229.5,464.7813 L229.5,471.2969 L227.7813,471.2969 C227.3438,471.2969 227.2188,471.3125 227.0625,471.4219 C226.8125,471.5781 226.6563,471.8594 226.6563,472.1563 C226.6563,472.4063 226.7969,472.6719 227.0156,472.8281 C227.1719,472.9531 227.375,473 227.7813,473 L232.9219,473 C233.6719,473 234.0313,472.7188 234.0313,472.1563 C234.0313,471.875 233.9219,471.625 233.6875,471.4531 C233.5156,471.3281 233.375,471.2969 232.9219,471.2969 L231.2031,471.2969 L231.2031,464.7813 Z " fill="#000000"/><text fill="#000000" font-family="sans-serif" font-size="14" font-style="italic" lengthAdjust="spacing" textLength="221" x="250.75" y="472.8467">IUniversePseudoBooleanSolver</text><line style="stroke:#181818;stroke-width:0.5;" x1="8" x2="682" y1="484" y2="484"/><line style="stroke:#181818;stroke-width:0.5;" x1="8" x2="682" y1="492" y2="492"/><text fill="#000000" font-family="sans-serif" font-size="14" lengthAdjust="spacing" textLength="664" x="13" y="508.9951">void addPseudoBoolean(List&lt;int&gt; lits, List&lt;BigInteger&gt; coeffs,bool moreThan, BigInteger d)</text><text fill="#000000" font-family="sans-serif" font-size="14" lengthAdjust="spacing" textLength="451" x="13" y="525.292">void addAtMost(List&lt;int&gt; literals, List&lt;int&gt; coeffs, int degree)</text><text fill="#000000" font-family="sans-serif" font-size="14" lengthAdjust="spacing" textLength="563" x="13" y="541.5889">void addAtMost(List&lt;int&gt; literals, List&lt;BigInteger&gt; coeffs, BigInteger degree)</text><text fill="#000000" font-family="sans-serif" font-size="14" lengthAdjust="spacing" textLength="455" x="13" y="557.8857">void addAtLeast(List&lt;int&gt; literals, List&lt;int&gt; coeffs, int degree)</text><text fill="#000000" font-family="sans-serif" font-size="14" lengthAdjust="spacing" textLength="563" x="13" y="574.1826">void addAtLeast(List&lt;int&gt; literals, List&lt;BigInteger&gt; coeffs,BigInteger degree)</text><text fill="#000000" font-family="sans-serif" font-size="14" lengthAdjust="spacing" textLength="449" x="13" y="590.4795">void addExactly(List&lt;int&gt; literals, List&lt;int&gt; coeffs, int weight)</text><text fill="#000000" font-family="sans-serif" font-size="14" lengthAdjust="spacing" textLength="561" x="13" y="606.7764">void addExactly(List&lt;int&gt; literals, List&lt;BigInteger&gt; coeffs, BigInteger weight)</text></g><!--class IUniverseCspSolver--><g id="elem_IUniverseCspSolver"><rect codeLine="29" fill="#F1F1F1" height="129.4844" id="IUniverseCspSolver" rx="2.5" ry="2.5" style="stroke:#181818;stroke-width:0.5;" width="438" x="126" y="674"/><ellipse cx="272.25" cy="690" fill="#B4A7E5" rx="11" ry="11" style="stroke:#181818;stroke-width:1.0;"/><path d="M273.2031,686.7813 L274.9219,686.7813 C275.3125,686.7813 275.5,686.75 275.625,686.6719 C275.8906,686.5156 276.0313,686.2344 276.0313,685.9375 C276.0313,685.6719 275.9219,685.4063 275.6875,685.2344 C275.5156,685.125 275.375,685.0938 274.9219,685.0938 L269.7813,685.0938 C269.3438,685.0938 269.2188,685.1094 269.0625,685.2031 C268.8125,685.3594 268.6563,685.6563 268.6563,685.9375 C268.6563,686.2188 268.7969,686.4688 269.0156,686.6406 C269.1719,686.75 269.3594,686.7813 269.7813,686.7813 L271.5,686.7813 L271.5,693.2969 L269.7813,693.2969 C269.3438,693.2969 269.2188,693.3125 269.0625,693.4219 C268.8125,693.5781 268.6563,693.8594 268.6563,694.1563 C268.6563,694.4063 268.7969,694.6719 269.0156,694.8281 C269.1719,694.9531 269.375,695 269.7813,695 L274.9219,695 C275.6719,695 276.0313,694.7188 276.0313,694.1563 C276.0313,693.875 275.9219,693.625 275.6875,693.4531 C275.5156,693.3281 275.375,693.2969 274.9219,693.2969 L273.2031,693.2969 L273.2031,686.7813 Z " fill="#000000"/><text fill="#000000" font-family="sans-serif" font-size="14" font-style="italic" lengthAdjust="spacing" textLength="137" x="292.75" y="694.8467">IUniverseCspSolver</text><line style="stroke:#181818;stroke-width:0.5;" x1="127" x2="563" y1="706" y2="706"/><line style="stroke:#181818;stroke-width:0.5;" x1="127" x2="563" y1="714" y2="714"/><text fill="#000000" font-family="sans-serif" font-size="14" lengthAdjust="spacing" textLength="314" x="132" y="730.9951">void newVariable(String id, int min, int max)</text><text fill="#000000" font-family="sans-serif" font-size="14" lengthAdjust="spacing" textLength="426" x="132" y="747.292">void newVariable(String id, BigInteger min, BigInteger max)</text><text fill="#000000" font-family="sans-serif" font-size="14" lengthAdjust="spacing" textLength="317" x="132" y="763.5889">void newVariable(String id, List&lt;int&gt; values)</text><text fill="#000000" font-family="sans-serif" font-size="14" lengthAdjust="spacing" textLength="373" x="132" y="779.8857">void newVariable(String id, List&lt;BigInteger&gt; values)</text><text fill="#000000" font-family="sans-serif" font-size="14" lengthAdjust="spacing" textLength="77" x="132" y="796.1826">void add*()</text></g><!--reverse link IUniverseSolver to IUniverseSatSolver--><g id="link_IUniverseSolver_IUniverseSatSolver"><path codeLine="37" d="M345,271.702 C345,285.912 345,299.361 345,310.992 " fill="none" id="IUniverseSolver-backto-IUniverseSatSolver" style="stroke:#181818;stroke-width:1.0;"/><polygon fill="none" points="338,271.216,345,251.216,352,271.216,338,271.216" style="stroke:#181818;stroke-width:1.0;"/></g><!--reverse link IUniverseSatSolver to IUniversePseudoBooleanSolver--><g id="link_IUniverseSatSolver_IUniversePseudoBooleanSolver"><path codeLine="38" d="M345,412.51 C345,425.114 345,438.6 345,451.807 " fill="none" id="IUniverseSatSolver-backto-IUniversePseudoBooleanSolver" style="stroke:#181818;stroke-width:1.0;"/><polygon fill="none" points="338,412.337,345,392.337,352,412.337,338,412.337" style="stroke:#181818;stroke-width:1.0;"/></g><!--reverse link IUniversePseudoBooleanSolver to IUniverseCspSolver--><g id="link_IUniversePseudoBooleanSolver_IUniverseCspSolver"><path codeLine="39" d="M345,634.356 C345,647.775 345,661.226 345,673.775 " fill="none" id="IUniversePseudoBooleanSolver-backto-IUniverseCspSolver" style="stroke:#181818;stroke-width:1.0;"/><polygon fill="none" points="338,634.137,345,614.136,352,634.136,338,634.137" style="stroke:#181818;stroke-width:1.0;"/></g><!--SRC=[jLJRRi8m37tdA_9O9lO34q82j4b884s3yHvQKoob2OhJ0j8-VkcL5h9I4Ej3cpe-npvsOfG6z9RxmF9dzYqn0KsmLC9-UnV_x8rHkl3wZXtMj7m1nS8K_akZKOPiYm8aZ-1U-1p93ClzCL4SxGqgEPnWEBCAGj2Z4UELdPpyYSA0OIfOntlZ_Ur3ODQWDuhGd3mBO08I4At-Aun0nSOJogeay9KCg0jWGJaakedHO57kfBFgr4gH5YrEw-1sJnN9DTV8DmAenMTgAsaqjsjghzPSXH-sizTTxc5rlivmRguELscof1ad3uAn45F1Ox8PPlgobwMpZVPpUx-T84Tx5Ou9jBbmGUwqFWdYG4sK4i3bPOAEpLgancup80skk-Chs6vfiB7-B58QLZik1-pimO9-ryXZir1a71gBi9cjY9VrD81G0poDto6h8UJUQ7FW_oldHW27diVbl1-vRyJf3Za7m71ddXVWHdlASCxxCANzvIseJDNTbt0e1qbv-J78jKGeYmK_zjqSRHIrD3Ec-lz3XESY9Lp4ZUdHMTTLKLkfoZQzU6c9ByVdyEVrjUDGRBhUFQYQy2h3Nm00]--></g></svg>